<?xml version="1.0" encoding="utf-8"?>
<!-- Generator: Adobe Illustrator 14.0.0, SVG Export Plug-In . SVG Version: 6.00 Build 43363)  -->
<!DOCTYPE svg PUBLIC "-//W3C//DTD SVG 1.0//EN" "http://www.w3.org/TR/2001/REC-SVG-20010904/DTD/svg10.dtd">
<svg version="1.0" id="Layer_1" xmlns="http://www.w3.org/2000/svg" xmlns:xlink="http://www.w3.org/1999/xlink" x="0px" y="0px"
	 width="100px" height="83.45px" viewBox="0 0 100 83.45" enable-background="new 0 0 100 83.45" xml:space="preserve">
<path d="M90.867,15.069c-5.043,0-9.132,4.088-9.132,9.132c0,2.058,0.681,3.957,1.83,5.484L71.918,42.379l-5.91-24.355
	c4.041-0.942,7.052-4.564,7.052-8.892C73.06,4.089,68.971,0,63.927,0s-9.133,4.089-9.133,9.132c0,3.333,1.786,6.248,4.452,7.842
	L50,40.932l-9.246-23.958c2.666-1.594,4.452-4.509,4.452-7.842C45.206,4.089,41.117,0,36.073,0S26.94,4.089,26.94,9.132
	c0,4.328,3.012,7.949,7.052,8.892l-5.91,24.355L16.435,29.685c1.149-1.527,1.83-3.426,1.83-5.484c0-5.044-4.089-9.132-9.132-9.132
	C4.089,15.069,0,19.157,0,24.201c0,5.043,4.089,9.132,9.133,9.132c0.105,0,0.211-0.004,0.315-0.008l12.013,32.201H50h28.539
	l12.013-32.201c0.105,0.003,0.21,0.008,0.315,0.008c5.044,0,9.133-4.089,9.133-9.132C100,19.157,95.911,15.069,90.867,15.069z"/>
<rect x="21.461" y="69.979" width="56.964" height="13.471"/>
</svg>
